<svg width="80" height="80" viewBox="0 0 80 80" fill="none" xmlns="http://www.w3.org/2000/svg">
<g clip-path="url(#clip0_716_4)">
<rect width="80" height="80" fill="#F1F3F4"/>
<path d="M81.5 21.5L42.3438 17.2024C41.1218 17.0683 39.8866 17.1227 38.6812 17.3638L19.5086 21.1983C15.4586 22.0083 12.1099 24.844 10.6436 28.7051L-2 62" stroke="#DADCE0" stroke-width="2"/>
<path d="M-6 9L86 72" stroke="#DADCE0" stroke-width="2"/>
<path d="M20.1687 53.7755L-2 46.5L-8.5 80.5L26.8241 103L32.0006 73.6122L20.1687 53.7755Z" fill="#A8DAB5"/>
<path d="M30 86L36.1984 44.3822C36.7036 40.9902 38.7618 38.028 41.7645 36.3713L49.7759 31.9512C50.9162 31.3221 51.9358 30.4954 52.7871 29.5097L61 20L78.5 -4" stroke="#DADCE0" stroke-width="2"/>
<ellipse cx="54.8185" cy="73.5112" rx="4.5" ry="5.5" transform="rotate(15.6728 54.8185 73.5112)" fill="#A8DAB5" stroke="#DADCE0" stroke-width="2"/>
<circle cx="62.077" cy="18.6989" r="3" transform="rotate(15.6728 62.077 18.6989)" fill="#F1F3F4" stroke="#DADCE0" stroke-width="2"/>
<path d="M57 68.5L61.682 59.136C62.5478 57.4044 63.8197 55.908 65.3892 54.7745L71.0515 50.685C71.6823 50.2294 72.2674 49.7135 72.7983 49.1447L86 35" stroke="#DADCE0" stroke-width="2"/>
<path d="M50 71.5L33.5 66.5" stroke="#DADCE0" stroke-width="2"/>
<path d="M59.5 75.5L83 83.5" stroke="#DADCE0" stroke-width="2"/>
<path d="M53 79L49.5 89L82.5 96" stroke="#DADCE0" stroke-width="2"/>
<path d="M-7.5 44.5L13.8014 51.4714C17.792 52.7774 21.1581 55.514 23.2511 59.1541L28.5798 68.4213C30.472 71.7122 31.2083 75.5416 30.6715 79.2995L29.5 87.5" stroke="#DADCE0" stroke-width="2"/>
<path d="M15 -7L38.7434 16.531L86 63" stroke="#DADCE0" stroke-width="2"/>
<path d="M25 30.5L17.5 53" stroke="#DADCE0" stroke-width="2"/>
<path d="M89 12L75 20.5L63.5 40.5L53.5 49.5L43 69L40 88" stroke="#DADCE0" stroke-width="2"/>
<path d="M5.44707 18.3075L-7.29357 27.1161C-9.39182 28.5667 -12.2931 27.4743 -12.9133 24.9999C-13.1926 23.886 -12.9317 22.7056 -12.2089 21.8132L1.56588 4.80472C3.06571 2.95281 5.09944 1.60767 7.39061 0.952182L9.35535 0.390077C12.0069 -0.36851 14.8621 0.30245 16.8983 2.1626C18.244 3.392 19.126 5.04679 19.3963 6.84937L19.9856 10.7792C20.0653 11.311 19.9895 11.8545 19.7674 12.3442C19.432 13.0833 18.7912 13.6396 18.0122 13.8676L9.58451 16.335C8.10878 16.7671 6.71189 17.433 5.44707 18.3075Z" fill="#78D9EC" stroke="#DADCE0" stroke-width="2"/>
<rect x="8.75" y="8.75" width="62.5" height="62.5" rx="31.25" fill="#1967D2" fill-opacity="0.3" stroke="#1967D2" stroke-width="1.5"/>
</g>
<defs>
<clipPath id="clip0_716_4">
<rect width="80" height="80" fill="white"/>
</clipPath>
</defs>
</svg>
